<svg width="120" height="120" viewBox="0 0 120 120" fill="none" xmlns="http://www.w3.org/2000/svg">



    <!-- stack -->

    <g id="html">
        <path d="M22.1323 102.004L13.7061 7.5H106.294L97.856 101.989L59.9436 112.5L22.1323 102.004Z" fill="#E44F26"/>
        <path d="M60 104.468L90.6375 95.9738L97.845 15.2288H60V104.468Z" fill="#F1662A"/>
        <path d="M60 50.2762H44.6625L43.605 38.4075H60V26.8162H30.9375L31.215 29.9287L34.0613 61.8675H60V50.2762ZM60 80.3775L59.9475 80.3925L47.04 76.9087L46.215 67.665H34.5787L36.2025 85.86L59.9475 92.4525L60 92.4375V80.3775Z" fill="#EBEBEB"/>
        <path d="M59.959 50.2762V61.8675H74.2315L72.889 76.9012L59.959 80.3887V92.4487L83.7227 85.86L83.8952 83.9025L86.6177 53.3887L86.9027 50.2762H59.959ZM59.959 26.8162V38.4075H87.9565L88.189 35.805L88.7177 29.9287L88.9952 26.8162H59.959Z" fill="white"/>
    </g>
    <g id="css">
        <path d="M22.1325 101.154L13.71 7.4375H106.29L97.8562 101.139L59.9437 111.562L22.1325 101.154Z" fill="#1572B6"/>
        <path d="M60 103.597L90.6375 95.174L97.845 15.1019H60V103.597Z" fill="#33A9DC"/>
        <path d="M60 49.054H75.3375L76.395 37.2842H60V25.7896H89.0625L88.785 28.8724L85.9387 60.5487H60V49.054Z" fill="white"/>
        <path d="M60.0711 78.9045L60.0186 78.9193L47.1112 75.4609L46.2862 66.2942H34.6499L36.2737 84.3413L60.0149 90.8788L60.0711 90.864V78.9045Z" fill="#EBEBEB"/>
        <path d="M74.3513 60.0615L72.9563 75.4534L60.03 78.9119V90.8714L83.79 84.3412L83.9663 82.4001L85.98 60.0615H74.3513Z" fill="white"/>
        <path d="M60.0411 25.7896V37.2842H32.0436L31.8111 34.6997L31.2824 28.8724L31.0049 25.7896H60.0411ZM59.9999 49.054V60.5487H47.2536L47.0211 57.9642L46.4961 52.1369L46.2186 49.054H59.9999Z" fill="#EBEBEB"/>
    </g>
    <g id="js">
        <path d="M7.5 7.5H112.5V112.5H7.5V7.5Z" fill="#F5DE19"/>
        <path d="M78.0338 89.5312C78.9284 91.3485 80.3183 92.8759 82.0434 93.9375C83.7684 94.9991 85.7584 95.5515 87.7838 95.5313C91.8713 95.5313 94.485 93.4875 94.485 90.6562C94.485 87.2812 91.8 86.0738 87.3 84.105L84.8325 83.0475C77.7075 80.0138 72.9825 76.215 72.9825 68.1825C72.9825 60.7838 78.6075 55.1475 87.4313 55.1475C90.2877 54.9412 93.1416 55.5805 95.637 56.9856C98.1324 58.3907 100.159 60.4994 101.464 63.0488L93.75 67.98C93.2476 66.716 92.3728 65.6345 91.2416 64.879C90.1105 64.1236 88.7764 63.7298 87.4163 63.75C86.8229 63.6906 86.2236 63.7555 85.6567 63.9404C85.0897 64.1254 84.5675 64.4265 84.1234 64.8244C83.6792 65.2224 83.3228 65.7085 83.0769 66.2518C82.831 66.7951 82.7009 67.3837 82.695 67.98C82.695 70.9388 84.5288 72.1388 88.7625 73.98L91.23 75.0375C99.615 78.6338 104.355 82.2975 104.355 90.5363C104.355 99.42 97.3763 104.287 88.005 104.287C84.3537 104.52 80.713 103.691 77.5223 101.901C74.3317 100.11 71.7274 97.4342 70.0238 94.1963L78.0338 89.5312ZM43.1775 90.3863C44.7263 93.135 46.1363 95.46 49.5263 95.46C52.7663 95.46 54.8138 94.1925 54.8138 89.2612V55.71H64.68V89.3925C64.68 99.6075 58.68 104.257 49.9463 104.257C46.8591 104.426 43.7931 103.657 41.1513 102.051C38.5096 100.444 36.4157 98.0761 35.145 95.2575L43.1775 90.3863Z" fill="black"/>
    </g>
    <g id="ts">
        <svg xmlns="http://www.w3.org/2000/svg" viewBox="0 0 32 32"><title>file_type_typescript_official</title><polygon points="2 16 2 30 16 30 30 30 30 16 30 2 16 2 2 2 2 16" style="fill:#007acc"/><path d="M24.564,14.884a3.485,3.485,0,0,1,1.751,1.009,4.611,4.611,0,0,1,.671.9c.009.036-1.209.853-1.947,1.311-.027.018-.133-.1-.253-.276a1.587,1.587,0,0,0-1.316-.791c-.849-.058-1.4.387-1.391,1.129a1.027,1.027,0,0,0,.12.524c.187.387.533.618,1.622,1.089,2,.862,2.862,1.431,3.4,2.24a4.063,4.063,0,0,1,.324,3.413,3.753,3.753,0,0,1-3.1,2.218,8.584,8.584,0,0,1-2.133-.022,5.145,5.145,0,0,1-2.849-1.484,4.947,4.947,0,0,1-.729-1.08,2.092,2.092,0,0,1,.258-.164c.124-.071.6-.342,1.04-.6l.8-.467L21,24.08A3.759,3.759,0,0,0,22.067,25.1a2.6,2.6,0,0,0,2.724-.138,1.217,1.217,0,0,0,.156-1.551c-.218-.311-.662-.573-1.924-1.12a6.93,6.93,0,0,1-2.636-1.622,3.692,3.692,0,0,1-.769-1.4,5.606,5.606,0,0,1-.049-1.787,3.413,3.413,0,0,1,2.871-2.658A7.092,7.092,0,0,1,24.564,14.884Zm-6.573,1.169L18,17.2H14.356V27.556H11.778V17.2H8.133V16.076a11.018,11.018,0,0,1,.031-1.156c.013-.018,2.231-.027,4.92-.022l4.893.013Z" style="fill:#fff"/></svg>
    </g>
    <g id="react">
        <g clip-path="url(#clip0_2_5687)">
            <path d="M92.9055 32.7027C91.703 32.2887 90.4903 31.9051 89.2686 31.5523C89.4738 30.7106 89.6627 29.8792 89.8304 29.0623C92.5837 15.6483 90.7838 4.84178 84.6359 1.28375C78.7415 -2.12722 69.1015 1.42949 59.3658 9.93342C58.4063 10.773 57.4681 11.6368 56.552 12.524C55.9388 11.934 55.3148 11.3556 54.6802 10.7888C44.4766 1.69616 34.2492 -2.13608 28.108 1.43215C22.2188 4.85374 20.4749 15.0127 22.9537 27.7254C23.2003 28.9844 23.4787 30.237 23.7887 31.4819C22.341 31.8947 20.9441 32.3342 19.6072 32.8019C7.64431 36.9881 0.00463867 43.5483 0.00463867 50.3529C0.00463867 57.3808 8.20617 64.43 20.666 68.7043C21.6762 69.0495 22.6947 69.3692 23.7208 69.6634C23.3875 71.0042 23.0917 72.354 22.8336 73.7114C20.4705 86.2035 22.3159 96.1223 28.1892 99.5222C34.2554 103.033 44.4369 99.4247 54.3505 90.7268C55.1544 90.0196 55.9406 89.2925 56.7083 88.546C57.7003 89.5066 58.7188 90.4393 59.7626 91.343C69.3659 99.6365 78.85 102.985 84.7176 99.5762C90.7781 96.055 92.7479 85.3995 90.1906 72.4356C89.9891 71.42 89.7632 70.4094 89.5131 69.4047C90.2281 69.1921 90.9299 68.9732 91.614 68.7455C104.567 64.4384 112.995 57.4747 112.995 50.3529C112.995 43.5234 105.109 36.919 92.9055 32.7027ZM90.0961 64.1474C89.4782 64.3525 88.8444 64.5505 88.1982 64.7432C86.7682 60.1995 84.8385 55.3684 82.4768 50.3764C84.7304 45.5036 86.5859 40.734 87.9758 36.22C89.1317 36.5558 90.2533 36.9097 91.3346 37.2832C101.791 40.8961 108.168 46.2372 108.168 50.3529C108.168 54.7367 101.28 60.4277 90.0961 64.1474ZM85.4556 73.3765C86.5864 79.1087 86.7475 84.2916 85.9985 88.3435C85.3258 91.9844 83.9726 94.4115 82.2989 95.3839C78.7384 97.4526 71.1234 94.7637 62.9109 87.6706C61.94 86.8305 60.9926 85.9634 60.0698 85.0703C63.2538 81.5756 66.4356 77.5131 69.5411 73.0008C75.0035 72.5144 80.164 71.7188 84.8438 70.6331C85.0693 71.5426 85.2732 72.4573 85.4556 73.3765ZM38.5256 95.0264C35.0467 96.2592 32.2758 96.2946 30.6008 95.3254C27.0368 93.2624 25.5551 85.298 27.5761 74.6151C27.8164 73.3527 28.0914 72.0972 28.401 70.8502C33.0292 71.8779 38.1522 72.6168 43.6274 73.0624C46.7541 77.4776 50.0277 81.5358 53.327 85.0894C52.6258 85.7703 51.9081 86.4338 51.1744 87.0793C46.7903 90.9252 42.3973 93.654 38.5256 95.0264ZM22.2276 64.1204C16.718 62.2302 12.1679 59.7738 9.04919 57.0933C6.24649 54.6848 4.8319 52.2932 4.8319 50.3529C4.8319 46.2234 10.9656 40.9564 21.1961 37.3766C22.4377 36.9425 23.7371 36.5327 25.0855 36.1482C26.4996 40.7641 28.3543 45.5904 30.5924 50.4707C28.3251 55.4233 26.444 60.3267 25.0162 64.997C24.0796 64.7278 23.1498 64.4355 22.2276 64.1204ZM27.6909 26.7947C25.5674 15.9031 26.9776 7.68706 30.5267 5.62497C34.3066 3.42867 42.6652 6.56011 51.4754 14.4115C52.0499 14.9247 52.6151 15.4482 53.1707 15.9819C49.8878 19.52 46.6442 23.548 43.5453 27.9371C38.2312 28.4315 33.1444 29.2253 28.4677 30.2889C28.1795 29.131 27.9205 27.9661 27.6909 26.7951V26.7947ZM76.43 38.8739C75.3254 36.9589 74.1797 35.0679 72.9939 33.2024C76.599 33.66 80.0532 34.2673 83.2968 35.0098C82.3232 38.1425 81.1094 41.4175 79.6807 44.7753C78.6364 42.7867 77.5526 40.8191 76.43 38.8739ZM56.5542 19.4443C58.7805 21.8652 61.0103 24.5678 63.2035 27.5003C58.7545 27.2894 54.298 27.2886 49.849 27.4977C52.0443 24.5922 54.2931 21.8931 56.5542 19.4443ZM36.5509 38.9071C35.4424 40.8367 34.3788 42.792 33.3612 44.7713C31.9558 41.4255 30.7531 38.1355 29.7711 34.9584C32.9948 34.2346 36.4326 33.6427 40.0148 33.1935C38.8158 35.0704 37.6608 36.9754 36.5509 38.9067V38.9071ZM40.1176 67.8569C36.4168 67.4423 32.9273 66.881 29.7044 66.1767C30.7019 62.9429 31.9311 59.5829 33.3669 56.1653C34.3886 58.1461 35.4566 60.1026 36.5699 62.033C37.7148 64.0176 38.9003 65.9614 40.1176 67.8569ZM56.6875 81.6027C54.3995 79.1255 52.1176 76.3848 49.8891 73.4372C52.0527 73.5222 54.2582 73.5656 56.5 73.5656C58.803 73.5656 61.0796 73.5138 63.3204 73.4137C61.1202 76.4145 58.8988 79.1592 56.6875 81.6027ZM79.7262 55.9907C81.2365 59.446 82.5094 62.7883 83.5202 65.9667C80.2443 66.7171 76.7072 67.3214 72.9803 67.7701C74.1745 65.8699 75.331 63.9461 76.449 61.9998C77.5857 60.0214 78.6783 58.0179 79.7262 55.9907ZM72.2679 59.5794C70.5563 62.5634 68.7486 65.4909 66.8474 68.357C63.4037 68.6018 59.9523 68.7234 56.5 68.7216C52.9836 68.7216 49.5634 68.6118 46.2699 68.3974C44.3191 65.5378 42.4769 62.6053 40.747 59.6059H40.7475C39.0258 56.6225 37.4176 53.5745 35.9264 50.4685C37.4138 47.3618 39.0171 44.3124 40.7329 41.3267L40.7325 41.3271C42.4476 38.3407 44.2752 35.4206 46.2112 32.5734C49.5713 32.3182 53.0171 32.1853 56.4995 32.1853H56.5C59.9983 32.1853 63.4484 32.3195 66.8077 32.5765C68.7242 35.4195 70.5401 38.3295 72.252 41.301C73.9735 44.2801 75.598 47.3147 77.123 50.3999C75.6137 53.5166 73.9943 56.5783 72.2679 59.5794ZM82.2252 5.48056C86.0086 7.67067 87.4801 16.5024 85.1029 28.0842C84.9511 28.8231 84.7807 29.5757 84.5953 30.339C79.9071 29.2528 74.8168 28.4452 69.4873 27.9433C66.3827 23.506 63.1655 19.4717 59.936 15.9792C60.7824 15.1604 61.6489 14.3628 62.5348 13.5871C70.8767 6.30141 78.673 3.42468 82.2252 5.48056ZM56.5 40.2263C62.0723 40.2263 66.5897 44.7603 66.5897 50.3529C66.5897 55.9456 62.0723 60.4795 56.5 60.4795C50.9277 60.4795 46.4102 55.9456 46.4102 50.3529C46.4102 44.7603 50.9277 40.2263 56.5 40.2263Z" fill="#00D8FF"/>
        </g>
        <defs>
            <clipPath id="clip0_2_5687">
                <rect width="113" height="101" fill="white"/>
            </clipPath>
        </defs>
    </g>
    <g id="redux">
        <path d="M72.6971 69.5627C76.5688 69.1619 79.5061 65.8242 79.3725 61.8184C79.2393 57.8131 75.9012 54.6086 71.8959 54.6086H71.6291C67.4897 54.7422 64.2856 58.2135 64.4193 62.3525C64.5529 64.3553 65.3537 66.091 66.5553 67.2926C62.016 76.2385 55.0734 82.7807 44.6594 88.2549C37.5832 91.9934 30.2402 93.3287 22.8971 92.3943C16.8889 91.593 12.216 88.923 9.27827 84.5164C5.00614 77.9742 4.60573 70.8975 8.21065 63.8213C10.7475 58.7475 14.7525 55.009 17.2893 53.1398C16.7553 51.4041 15.9541 48.4668 15.5537 46.3307C-3.80574 60.35 -1.80287 79.3094 4.07172 88.2549C8.47745 94.9311 17.4229 99.0701 27.3029 99.0701C29.9729 99.0701 32.643 98.8029 35.3135 98.1357C52.4033 94.7975 65.3541 84.65 72.6971 69.5627ZM96.1955 53.0066C86.0483 41.1234 71.0951 34.5811 54.0053 34.5811H51.8693C50.6676 32.1779 48.1307 30.5754 45.327 30.5754H45.0598C40.9213 30.709 37.7172 34.1803 37.8504 38.3197C37.984 42.325 41.3217 45.5295 45.327 45.5295H45.5938C48.5311 45.3959 51.068 43.5266 52.1361 40.9898H54.5393C64.6865 40.9898 74.2992 43.927 82.9779 49.6684C89.6533 54.0746 94.4598 59.816 97.1299 66.7586C99.3996 72.3664 99.266 77.8406 96.8627 82.5139C93.1246 89.5902 86.8496 93.4623 78.5717 93.4623C73.2311 93.4623 68.1578 91.8598 65.4873 90.6582C64.0188 91.9934 61.3484 94.1295 59.4791 95.4652C65.2205 98.1352 71.0951 99.6041 76.7025 99.6041C89.5197 99.6041 98.9992 92.5275 102.604 85.4512C106.476 77.707 106.209 64.3553 96.1955 53.0066ZM28.3709 71.832C28.5045 75.8377 31.8422 79.0418 35.8475 79.0418H36.1147C40.2537 78.9086 43.4578 75.4369 43.3242 71.2979C43.191 67.2922 39.8529 64.0881 35.8475 64.0881H35.5807C35.3135 64.0881 34.9127 64.0881 34.6463 64.2213C29.1721 55.1422 26.9025 45.2623 27.7037 34.5807C28.2373 26.5697 30.9078 19.6266 35.5807 13.8852C39.4525 8.94508 46.9291 6.5418 52.0029 6.40861C66.1549 6.14139 72.1627 23.7656 72.5635 30.8422C74.2992 31.2426 77.2365 32.1775 79.2393 32.8451C77.6369 11.2156 64.2856 0 51.4688 0C39.4524 0 28.3709 8.67869 23.9647 21.4963C17.8234 38.5865 21.8287 55.009 29.3053 67.9602C28.6381 68.8947 28.2373 70.3635 28.3709 71.8324V71.832Z" fill="#764ABC"/>
    </g>
    <g id="rhf">
        <svg xmlns="http://www.w3.org/2000/svg" width="120" height="120" viewBox="0 0 203 202" fill-rule="evenodd">
            <path d="M157.995 8.5c10.08 0 19.206 4.087 25.812 10.692S194.5 34.924 194.5 45.003h0v111.994c0 10.08-4.086 19.206-10.692 25.812a36.39 36.39 0 0 1-25.813 10.691h0-112.99c-10.08 0-19.206-4.087-25.812-10.692S8.5 167.076 8.5 156.997h0V45.003c0-10.08 4.086-19.206 10.692-25.812A36.39 36.39 0 0 1 45.005 8.5h0z" stroke="#fff" stroke-width="17" fill="#ec5990"/><path d="M133.385 51.604h-20.868c-1.53-4.766-5.981-8.001-11.009-8.001s-9.479 3.235-11.009 8.001H69.616c-8.222 0-14.887 6.632-14.887 14.813v77.177c0 8.181 6.665 14.813 14.887 14.813h63.769c8.222 0 14.887-6.632 14.887-14.813V66.417c0-8.181-6.665-14.813-14.887-14.813h0zM91.54 54.297a1.35 1.35 0 0 0 1.353-1.064c.886-4.046 4.486-6.932 8.648-6.932s7.762 2.885 8.648 6.932a1.35 1.35 0 0 0 1.353 1.064h7.281v8.821c0 2.231-1.818 4.04-4.06 4.04H88.305c-2.242 0-4.06-1.809-4.06-4.04v-8.821h7.294zm54.025 89.297c0 6.694-5.453 12.12-12.18 12.12H69.616c-6.727 0-12.18-5.426-12.18-12.12V66.417c0-6.694 5.453-12.12 12.18-12.12h11.923v8.821c0 3.719 3.03 6.733 6.767 6.733h26.39c3.737 0 6.767-3.015 6.767-6.733v-8.821h11.923c6.727 0 12.18 5.426 12.18 12.12v77.177zm-14.833-47.981h-23.819a1.35 1.35 0 0 0-1.353 1.347 1.35 1.35 0 0 0 1.353 1.347h23.819a1.35 1.35 0 0 0 1.353-1.347 1.35 1.35 0 0 0-1.353-1.347h0zm-35.186 0H71.727a1.35 1.35 0 0 0-1.353 1.347 1.35 1.35 0 0 0 1.353 1.347h23.819a1.35 1.35 0 0 0 1.353-1.347 1.35 1.35 0 0 0-1.353-1.347h0zm35.254 32.589h-23.886a1.35 1.35 0 0 0-1.353 1.347 1.35 1.35 0 0 0 1.353 1.347H130.8a1.35 1.35 0 0 0 1.353-1.347 1.35 1.35 0 0 0-1.353-1.347h0zm-35.187 0H71.727a1.35 1.35 0 0 0-1.353 1.347 1.35 1.35 0 0 0 1.353 1.347h23.886a1.35 1.35 0 0 0 1.353-1.347 1.35 1.35 0 0 0-1.353-1.347h0z" fill="#fff"/>
        </svg>
    </g>
    <g id="formik">
        <svg xmlns="http://www.w3.org/2000/svg" width="120" height="120" fill="none" viewBox="0 0 60 85">
            <path fill="#172B4D" d="M38.8688 0L48.5628 5.57462L10.3866 27.5283L0.692639 21.9536L38.8688 0Z"></path>
            <path fill="#172B4D" d="M48.9537 6.74507L11.0179 28.5506L11.0166 39.5831L48.9525 17.7776L48.9537 6.74507Z"></path>
            <path fill="#172B4D" d="M33.6985 28.2757L11.0976 41.2669L11.0964 52.2997L33.6972 39.3084L33.6985 28.2757Z"></path>
            <path fill="#172B4D" d="M25.0346 45.7171L11.0441 53.7592L11.0428 64.7922L25.0334 56.7501L25.0346 45.7171Z"></path>
            <path fill="#172B4D" d="M0.00375833 23.0173L9.75474 28.622L9.75099 39.6571L0 34.0525L0.00375833 23.0173Z"></path>
            <path fill="#172B4D" d="M0.0965426 35.6574L9.72924 41.1941L9.72548 52.2292L0.0927843 46.6926L0.0965426 35.6574Z"></path>
            <path fill="#172B4D" d="M0.0922985 48.2214L9.72824 53.76L9.72423 65.523L0.0882924 59.9844L0.0922985 48.2214Z"></path>
            <path fill="#172B4D" d="M21.5645 84L11.8705 78.4254L49.6134 56.7209L59.3073 62.2955L21.5645 84Z"></path>
            <path fill="#172B4D" d="M11.102 77.4713L48.9809 55.6985L48.9821 44.666L11.1032 66.4388L11.102 77.4713Z"></path>
            <path fill="#172B4D" d="M26.3002 55.9735L48.901 42.9822L48.9023 31.9495L26.3014 44.9407L26.3002 55.9735Z"></path>
            <path fill="#172B4D" d="M34.9641 38.532L48.9546 30.4899L48.9558 19.457L34.9653 27.4991L34.9641 38.532Z"></path>
            <path fill="#172B4D" d="M59.9962 61.3058L50.2453 55.7012L50.249 44.666L60 50.2706L59.9962 61.3058Z"></path>
            <path fill="#172B4D" d="M59.9041 48.5947L50.2714 43.058L50.2751 32.0229L59.9078 37.5595L59.9041 48.5947Z"></path>
            <path fill="#172B4D" d="M59.9077 36.0307L50.2717 30.4921L50.2756 18.9405L59.9116 24.479L59.9077 36.0307Z"></path>
        </svg>
    </g>
    <g id="storybook">
        <svg xmlns="http://www.w3.org/2000/svg" viewBox="0 0 32 32"><title>file_type_storybook</title><path d="M20.735,5.442l.133-3.173,2.72-.168.122,3.23a.216.216,0,0,1-.047.143.21.21,0,0,1-.3.029l-1.05-.82-1.243.934a.212.212,0,0,1-.3-.04A.206.206,0,0,1,20.735,5.442Z" style="fill:#fff"/><path d="M20.868,2.268l-.133,3.174a.206.206,0,0,0,.043.135.212.212,0,0,0,.3.04l1.243-.934,1.05.82a.21.21,0,0,0,.3-.029.216.216,0,0,0,.047-.143L23.588,2.1,25.154,2A1.415,1.415,0,0,1,26.66,3.321q0,.043,0,.087V28.592A1.414,1.414,0,0,1,25.245,30l-.066,0L6.231,29.156A1.414,1.414,0,0,1,4.876,27.8L4,4.69A1.412,1.412,0,0,1,5.33,3.232l15.537-.963Z" style="fill:#ff4785"/><path d="M17.253,12.554c0,.547,3.72.285,4.22-.1,0-3.73-2.018-5.69-5.714-5.69S9.993,8.754,9.993,11.74c0,5.2,7.077,5.3,7.077,8.136a1.127,1.127,0,0,1-1.258,1.27c-1.127,0-1.573-.572-1.52-2.512,0-.421-4.3-.553-4.43,0-.334,4.7,2.621,6.06,6,6.06,3.276,0,5.845-1.733,5.845-4.868,0-5.573-7.182-5.423-7.182-8.185a1.18,1.18,0,0,1,1.337-1.269C16.388,10.372,17.332,10.464,17.253,12.554Z" style="fill:#fff"/></svg>
    </g>
    <g id="postman">
        <svg width="120" height="120" viewBox="0 0 32 32" fill="none" xmlns="http://www.w3.org/2000/svg"><path d="M18.0379 0.13033C14.8991 -0.272747 11.7113 0.264019 8.87752 1.67275C6.04379 3.08148 3.69144 5.29889 2.11796 8.04457C0.544486 10.7903 -0.179442 13.9409 0.0377277 17.098C0.254897 20.2551 1.40341 23.277 3.33802 25.7813C5.27263 28.2857 7.90645 30.1601 10.9064 31.1676C13.9063 32.175 17.1376 32.2702 20.1917 31.4412C23.2457 30.6121 25.9854 28.896 28.0641 26.5099C30.1428 24.1237 31.4672 21.1748 31.8699 18.0359C32.4098 13.8273 31.2559 9.57657 28.6619 6.21869C26.068 2.8608 22.2465 0.670781 18.0379 0.13033Z" fill="#FF6C37"></path><path d="M11.5674 17.0111C11.5736 17.0238 11.5841 17.0339 11.5969 17.0397C11.6097 17.0456 11.6242 17.0468 11.6378 17.0431L14.1978 16.4911L13.121 15.3999L11.5866 16.9343C11.5745 16.9425 11.5659 16.9548 11.5623 16.969C11.5588 16.9832 11.5606 16.9982 11.5674 17.0111Z" fill="white"></path><path d="M23.5548 6.0193C23.198 6.01966 22.8459 6.10004 22.5243 6.25451C22.2027 6.40898 21.9199 6.63361 21.6966 6.91187C21.4733 7.19012 21.3153 7.51491 21.2342 7.86232C21.153 8.20973 21.1508 8.57091 21.2277 8.91928C21.3047 9.26765 21.4588 9.59433 21.6786 9.87527C21.8985 10.1562 22.1786 10.3842 22.4983 10.5426C22.818 10.701 23.1691 10.7856 23.5259 10.7903C23.8826 10.795 24.2358 10.7196 24.5596 10.5697L22.9372 8.9473C22.9186 8.92872 22.9038 8.90665 22.8937 8.88235C22.8836 8.85805 22.8784 8.83201 22.8784 8.8057C22.8784 8.77939 22.8836 8.75334 22.8937 8.72904C22.9038 8.70475 22.9186 8.68268 22.9372 8.6641L25.0572 6.5457C24.6314 6.20338 24.1011 6.01756 23.5548 6.0193Z" fill="white"></path><path d="M25.3483 6.8208L23.3611 8.8L24.9195 10.3584C25.0343 10.2778 25.1414 10.1867 25.2395 10.0864C25.6666 9.6564 25.9152 9.08072 25.9354 8.47497C25.9556 7.86923 25.7458 7.27828 25.3483 6.8208Z" fill="white"></path><path d="M21.3722 10.4737H21.337C21.2957 10.4733 21.2544 10.4771 21.2138 10.4849H21.1994C21.1548 10.4945 21.111 10.5073 21.0682 10.5233L21.0346 10.5393C21.0024 10.5527 20.9714 10.5687 20.9418 10.5873L20.9066 10.6097C20.8679 10.6364 20.8315 10.6664 20.7978 10.6993L14.905 16.5936L15.6346 17.3232L21.8746 11.8465C21.9099 11.8155 21.942 11.7812 21.9706 11.7441L21.9978 11.7089C22.0191 11.6776 22.0384 11.645 22.0554 11.6113C22.065 11.5921 22.073 11.5729 22.081 11.5537C22.0918 11.5281 22.1009 11.5019 22.1082 11.4753C22.1082 11.4561 22.1194 11.4369 22.1242 11.4177C22.1321 11.378 22.1375 11.338 22.1402 11.2977V11.2449C22.1402 11.2161 22.1402 11.1873 22.1402 11.1585C22.1402 11.1297 22.1402 11.1201 22.1322 11.1009C22.1026 10.9499 22.0289 10.811 21.9204 10.7019C21.8119 10.5929 21.6735 10.5184 21.5226 10.4881H21.4922C21.4526 10.4804 21.4125 10.4756 21.3722 10.4737Z" fill="white"></path><path d="M13.3962 15.1168L14.6058 16.32L20.5146 10.4112C20.7069 10.2232 20.9575 10.1064 21.225 10.08C20.1802 9.28 19.041 9.4896 13.3962 15.1168Z" fill="white"></path><path d="M22.2075 12.0769L22.1355 12.1473L15.8955 17.6225L16.9563 18.6817C19.5867 16.1937 21.9211 13.8241 22.2075 12.0769Z" fill="white"></path><path d="M6.64277 24.9039C6.64601 24.9153 6.65267 24.9253 6.66182 24.9328C6.67098 24.9402 6.6822 24.9447 6.69397 24.9455L9.41396 25.1327L7.88917 23.6079L6.65557 24.8399C6.64757 24.8483 6.64212 24.8587 6.63985 24.87C6.63759 24.8814 6.6386 24.8931 6.64277 24.9039Z" fill="white"></path><path d="M8.17383 23.3247L9.78182 24.9327C9.80091 24.9531 9.82645 24.9663 9.85413 24.9701C9.88181 24.9739 9.90996 24.968 9.93382 24.9535C9.95875 24.9411 9.97861 24.9205 9.98999 24.8951C10.0014 24.8697 10.0036 24.8411 9.99622 24.8143L9.72582 23.6591C9.70831 23.5842 9.71627 23.5056 9.74844 23.4358C9.7806 23.366 9.83514 23.3089 9.90342 23.2735C12.7226 21.8607 14.9962 20.4063 16.665 18.9535L15.545 17.8335L13.145 18.3503L8.17383 23.3247Z" fill="white"></path><path d="M15.2012 17.4944L14.5996 16.8928L13.7676 17.7232C13.7616 17.7304 13.7583 17.7395 13.7583 17.7488C13.7583 17.7582 13.7616 17.7672 13.7676 17.7744C13.7714 17.7829 13.7783 17.7898 13.7868 17.7936C13.7954 17.7974 13.805 17.798 13.814 17.7952L15.2012 17.4944Z" fill="white"></path><path d="M25.4043 8.11051C25.3961 8.08533 25.3826 8.0622 25.3647 8.04267C25.3469 8.02314 25.325 8.00766 25.3006 7.99728C25.2763 7.9869 25.25 7.98185 25.2235 7.98247C25.197 7.9831 25.171 7.98938 25.1471 8.0009C25.1233 8.01242 25.1022 8.02891 25.0852 8.04926C25.0683 8.06962 25.0559 8.09336 25.0489 8.1189C25.0419 8.14444 25.0404 8.17118 25.0446 8.19733C25.0488 8.22348 25.0585 8.24844 25.0731 8.27051C25.1209 8.36674 25.1399 8.47474 25.1277 8.58148C25.1155 8.68823 25.0726 8.78917 25.0043 8.87211C24.9819 8.89921 24.9676 8.93213 24.9632 8.96703C24.9587 9.00193 24.9643 9.03738 24.9792 9.06924C24.9941 9.10111 25.0178 9.12807 25.0475 9.14699C25.0771 9.16591 25.1116 9.17601 25.1467 9.17611C25.1739 9.17582 25.2007 9.16967 25.2253 9.15807C25.2499 9.14647 25.2716 9.1297 25.2891 9.10891C25.4024 8.97122 25.4735 8.80379 25.4939 8.62669C25.5143 8.4496 25.4832 8.27037 25.4043 8.11051Z" fill="#FF6C37"></path></svg>
    </g>
    <g id="axios">
        <svg width="120" height="120" viewBox="0 0 188 28" fill="#671ddf" xmlns="http://www.w3.org/2000/svg">
            <path d="M93.295 3.65206L86.356 9.30495H90.8876V27.68L93.295 25.7411V3.65206Z" fill="#671ddf"></path>
            <path d="M95.295 24.0997L102.356 18.305H97.6975V0.350052L95.295 2.02275V24.0997Z" fill="#671ddf"></path>
            <path d="M182.695 6.95295C183.495 7.36895 184.071 7.72095 184.423 8.00895L186.919 3.25695C185.671 2.48895 184.167 1.80095 182.407 1.19295C180.679 0.584955 178.807 0.280952 176.791 0.280952C174.871 0.280952 173.095 0.600952 171.463 1.24095C169.863 1.88095 168.583 2.82495 167.623 4.07295C166.695 5.32095 166.231 6.87295 166.231 8.72895C166.231 10.809 166.887 12.409 168.199 13.529C169.543 14.617 171.591 15.513 174.343 16.217C176.551 16.793 178.327 17.321 179.671 17.801C181.047 18.249 181.735 19.001 181.735 20.057C181.735 21.625 180.263 22.409 177.319 22.409C175.847 22.409 174.455 22.233 173.143 21.881C171.831 21.529 170.679 21.097 169.687 20.585C168.727 20.073 168.039 19.609 167.623 19.193L165.031 24.233C166.695 25.289 168.599 26.121 170.743 26.729C172.887 27.337 175.047 27.641 177.223 27.641C179.111 27.641 180.871 27.385 182.503 26.873C184.135 26.329 185.447 25.465 186.439 24.281C187.463 23.065 187.975 21.4649 187.975 19.4809C187.975 17.8489 187.591 16.537 186.823 15.545C186.087 14.521 185.015 13.705 183.607 13.097C182.231 12.489 180.599 11.945 178.711 11.465C176.567 10.953 174.935 10.489 173.815 10.073C172.727 9.65695 172.183 8.95295 172.183 7.96095C172.183 6.26495 173.687 5.41695 176.695 5.41695C177.815 5.41695 178.903 5.57695 179.959 5.89695C181.015 6.18495 181.927 6.53695 182.695 6.95295Z" fill="#671ddf"></path>
            <path fill-rule="evenodd" clip-rule="evenodd" d="M132.182 27.497C130.07 27.497 128.15 27.129 126.422 26.393C124.694 25.625 123.205 24.601 121.957 23.321C120.709 22.009 119.749 20.537 119.077 18.905C118.406 17.273 118.069 15.593 118.069 13.865C118.069 12.105 118.421 10.409 119.125 8.77695C119.829 7.14495 120.822 5.70496 122.102 4.45695C123.382 3.17695 124.885 2.16895 126.613 1.43295C128.341 0.696953 130.229 0.328949 132.277 0.328949C134.389 0.328949 136.31 0.728952 138.038 1.52895C139.766 2.29695 141.238 3.33695 142.454 4.64895C143.702 5.92895 144.661 7.38495 145.333 9.01695C146.005 10.649 146.342 12.3129 146.342 14.0089C146.342 15.7689 145.99 17.465 145.286 19.097C144.582 20.697 143.589 22.137 142.309 23.417C141.061 24.665 139.574 25.657 137.846 26.393C136.118 27.129 134.23 27.497 132.182 27.497ZM123.925 13.913C123.925 15.353 124.262 16.729 124.934 18.041C125.605 19.321 126.549 20.361 127.765 21.161C129.013 21.961 130.501 22.361 132.229 22.361C133.989 22.361 135.477 21.945 136.693 21.113C137.91 20.249 138.837 19.177 139.477 17.8969C140.117 16.5849 140.438 15.241 140.438 13.865C140.438 12.425 140.102 11.0649 139.43 9.78495C138.758 8.50495 137.798 7.48095 136.549 6.71295C135.333 5.91295 133.878 5.51295 132.182 5.51295C130.422 5.51295 128.917 5.92895 127.669 6.76095C126.453 7.59295 125.525 8.64896 124.885 9.92896C124.245 11.209 123.925 12.537 123.925 13.913Z" fill="#671ddf"></path>
            <path fill-rule="evenodd" clip-rule="evenodd" d="M0 27.305L11.712 0.472954H16.464L28.128 27.305H21.984L19.296 21.017H8.88L6.192 27.305H0ZM14.112 7.52895L10.176 15.977H17.904L14.112 7.52895Z" fill="#671ddf"></path>
            <path d="M50.8211 0.472954L58.2131 9.97695L65.6051 0.472954H71.8931L61.2851 14.057L71.5571 27.305H65.2691L58.2131 18.185L51.2051 27.305H44.8211L55.1411 14.057L44.4851 0.472954H50.8211Z" fill="#671ddf"></path>
        </svg>
    </g>
    <g id="rest">
        <svg class="icon icon-tabler icon-tabler-api" fill="none" height="120" stroke="currentColor" stroke-linecap="round" stroke-linejoin="round" stroke-width="2" viewBox="0 0 24 24" width="120" xmlns="http://www.w3.org/2000/svg"><path d="M0 0h24v24H0z" fill="none" stroke="none"/><path d="M4 13h5"/><path d="M12 16v-8h3a2 2 0 0 1 2 2v1a2 2 0 0 1 -2 2h-3"/><path d="M20 8v8"/><path d="M9 16v-5.5a2.5 2.5 0 0 0 -5 0v5.5"/></svg>
    </g>
    <g id="styledComponents">
        <svg xmlns="http://www.w3.org/2000/svg" viewBox="0 0 32 32"><title>file_type_styled</title><path d="M18.05,29.6c.042-.095.148-.161.225-.241,1.175-1.232,2.36-2.453,3.519-3.7A3.2,3.2,0,0,0,22.808,23a5.925,5.925,0,0,0-.143-.624c-.316.3-.61.573-.906.848-.46.428-.918.858-1.382,1.281a1.931,1.931,0,0,1-2.148.419,1.973,1.973,0,0,1-1.29-1.75,1.04,1.04,0,0,0-.043-.146c-.353.3-.691.576-1.026.86l-6.963,5.9c-.048.041-.1.092-.145.132h9.283l-.014-.009C17.981,29.876,18.007,29.692,18.05,29.6Z" style="fill:#ffcebf"/><path d="M8.337,29.6a1.239,1.239,0,0,1,.295-.276l9.636-8.175q.986-.837,1.963-1.683a.523.523,0,0,0,.182-.224,5.364,5.364,0,0,0,.065-2.069c-.1.07-.154.1-.2.149-.789.706-1.574,1.418-2.367,2.12a1.762,1.762,0,0,1-2.048.329,1.889,1.889,0,0,1-1.08-1.807c0-.085,0-.169,0-.324-.145.106-.251.177-.35.257Q8.648,22.529,2.865,27.154c-.174.139-.382.449-.61.148s.119-.425.294-.565q6.165-4.947,12.336-9.885c.67-.537.714-.762.278-1.615l-.26.244c-.713.663-1.434,1.317-2.136,1.991a2.121,2.121,0,0,1-3.585-1.337c-.133.1-.248.173-.357.258l-6.1,4.728a1.485,1.485,0,0,1-.356.258.446.446,0,0,1-.3-.015v8.561H8.325A.365.365,0,0,1,8.337,29.6Z" style="fill:#ffcebf"/><path d="M25.237,2.423c-.17.557-.335,1.115-.484,1.678a1.688,1.688,0,0,0,.9,2.09,7.122,7.122,0,0,0,3.818.8V2.518a.73.73,0,0,1,.016-.294.666.666,0,0,1,.105-.149H25.233C25.3,2.153,25.277,2.29,25.237,2.423Z" style="fill:#ff6196"/><path d="M16.482,12.032a2.422,2.422,0,0,1-.5,1.376A22.671,22.671,0,0,1,12.256,17.2a1.442,1.442,0,0,1-1.684.2,1.393,1.393,0,0,1-.843-1.368,1.624,1.624,0,0,1,.417-.947,35.848,35.848,0,0,1,5.019-3.993.71.71,0,0,1,.829-.034A1.041,1.041,0,0,1,16.482,12.032Z" style="fill:#ff87af"/><path d="M15.284,18.093a1.437,1.437,0,0,1,.448-1.2,38.336,38.336,0,0,1,4.87-3.813c.052-.033.1-.066.157-.1a.837.837,0,0,1,1.025.035.861.861,0,0,1,.242.979,4.39,4.39,0,0,1-1.168,1.908c-1.105,1.1-2.252,2.164-3.4,3.22a1.124,1.124,0,0,1-1.364.192A1.512,1.512,0,0,1,15.284,18.093Z" style="fill:#ff87af"/><path d="M22.5,18.754c-.28.3-.568.586-.837.893a1.89,1.89,0,0,0-.2.38c.148.044.321.16.441.119.611-.205,1.207-.451,1.878-.71-.146.336-.256.646-.411.93A12.189,12.189,0,0,1,21,23.238q-.532.513-1.105.981a1.484,1.484,0,0,1-2.415-.92,1.1,1.1,0,0,1,.238-.813,22.187,22.187,0,0,1,4.623-3.823.193.193,0,0,1,.065-.013Z" style="fill:#ff87af"/><path d="M24.794,14.771l1.711-7.6,1.2.281-.619,1.881c-.578,1.75-1.163,3.5-1.727,5.252C25.249,14.909,25.105,14.969,24.794,14.771Z" style="fill:#ff6196"/><path d="M22.862,19.241c.181-.691.361-1.33.513-1.976a4.468,4.468,0,0,1,.826-1.721c.243-.319.516-.192.795-.123.258.063.323.252.334.5a2.845,2.845,0,0,1-.588,1.907A4.8,4.8,0,0,1,22.862,19.241Z" style="fill:#ff6196"/><path d="M29.993,2.894a3.623,3.623,0,0,0-.017-.668.291.291,0,0,0-.116-.151A.381.381,0,0,0,29.708,2c-.032-.006-.077.027-.12.074a.666.666,0,0,0-.105.149.73.73,0,0,0-.016.294V6.989a7.122,7.122,0,0,1-3.818-.8,1.688,1.688,0,0,1-.9-2.09c.149-.563.314-1.121.484-1.678.04-.133.063-.27,0-.348a.2.2,0,0,0-.135-.064.3.3,0,0,0-.182.064.434.434,0,0,0-.171.19c-.2.6-.376,1.206-.529,1.818a2.148,2.148,0,0,0-.046.737,2.339,2.339,0,0,0,1.542,2c.189.079.3.157.247.406-.073.316-.144.632-.216.949q-.735,3.222-1.462,6.447a.483.483,0,0,1-.121.257,3.228,3.228,0,0,0-.791.92,4.8,4.8,0,0,0-.53,1.5.981.981,0,0,1-.558.785c-.417.211-.8.484-1.263.768A12.639,12.639,0,0,0,21,17.179a1.062,1.062,0,0,1,.284-.96,4.75,4.75,0,0,0,1.258-2.194,1.294,1.294,0,0,0-1.208-1.7,1.7,1.7,0,0,0-.929.264c-.957.646-1.888,1.332-2.812,2.026-.547.412-1.062.868-1.592,1.3a.418.418,0,0,1-.059-.081.842.842,0,0,0-.059-.214c-.443-.684-.136-1.181.345-1.692A2.793,2.793,0,0,0,17,11.977a1.568,1.568,0,0,0-.327-1.026,1.459,1.459,0,0,0-.438-.363,1.337,1.337,0,0,0-1.517.162l-.279.2c-.637.456-1.282.9-1.895,1.388-.895.712-1.769,1.454-2.626,2.214-.4.353-.692.835-1.107,1.163-2.164,1.709-4.351,3.387-6.53,5.076a1.022,1.022,0,0,0-.205.161.164.164,0,0,0-.016.029c-.046.107-.085.284-.031.349a.141.141,0,0,0,.047.033.446.446,0,0,0,.3.015,1.485,1.485,0,0,0,.356-.258l6.1-4.728c.109-.085.224-.162.357-.258a2.121,2.121,0,0,0,3.585,1.337c.7-.674,1.423-1.328,2.136-1.991l.26-.244c.436.853.392,1.078-.278,1.615Q8.716,21.793,2.549,26.737c-.175.14-.521.267-.294.565s.436-.009.61-.148Q8.651,22.533,14.429,17.9c.1-.08.205-.151.35-.257,0,.155,0,.239,0,.324a1.889,1.889,0,0,0,1.08,1.807,1.762,1.762,0,0,0,2.048-.329c.793-.7,1.578-1.414,2.367-2.12.05-.045.108-.079.2-.149a5.364,5.364,0,0,1-.065,2.069.523.523,0,0,1-.182.224q-.978.845-1.963,1.683L8.632,29.328a1.239,1.239,0,0,0-.295.276.365.365,0,0,0-.012.321v0a.376.376,0,0,0,.32.063.294.294,0,0,0,.116-.065c.05-.04.1-.091.145-.132l6.963-5.9c.335-.284.673-.564,1.026-.86a1.04,1.04,0,0,1,.043.146,1.973,1.973,0,0,0,1.29,1.75,1.931,1.931,0,0,0,2.148-.419c.464-.423.922-.853,1.382-1.281.3-.275.59-.551.906-.848a5.925,5.925,0,0,1,.143.624,3.2,3.2,0,0,1-1.014,2.649c-1.159,1.248-2.344,2.469-3.519,3.7-.077.08-.183.146-.225.241s-.069.281-.019.321l.014.009a.573.573,0,0,0,.338.051.136.136,0,0,0,.081-.051c.028-.029.055-.065.082-.092.952-.984,1.909-1.963,2.854-2.954a13.982,13.982,0,0,0,1.074-1.223,3.411,3.411,0,0,0,.61-3.616.516.516,0,0,1,.074-.386c.065-.112.137-.221.211-.329a4.632,4.632,0,0,0,.587-1,7.547,7.547,0,0,1,1.339-2.4,2.792,2.792,0,0,0,.5-2.469.988.988,0,0,1,0-.489c.506-1.567,1.027-3.129,1.543-4.692q.347-1.05.69-2.094l.213-.647c.454,0,.882-.009,1.308,0,.354.01.462-.156.458-.5C29.985,5.652,29.993,4.273,29.993,2.894ZM12.256,17.2a1.442,1.442,0,0,1-1.684.2,1.393,1.393,0,0,1-.843-1.368,1.624,1.624,0,0,1,.417-.947,35.848,35.848,0,0,1,5.019-3.993.852.852,0,0,1,.326-.14.656.656,0,0,1,.238,0,.763.763,0,0,1,.265.106,1.041,1.041,0,0,1,.488.975,2.422,2.422,0,0,1-.5,1.376A22.671,22.671,0,0,1,12.256,17.2Zm5.2,1.929a1.124,1.124,0,0,1-1.364.192,1.512,1.512,0,0,1-.81-1.224,1.437,1.437,0,0,1,.448-1.2,38.336,38.336,0,0,1,4.87-3.813c.052-.033.1-.066.157-.1a.837.837,0,0,1,1.025.035.861.861,0,0,1,.242.979,4.39,4.39,0,0,1-1.168,1.908C19.753,17.008,18.606,18.069,17.458,19.125Zm5.911,1.241A12.189,12.189,0,0,1,21,23.238q-.532.513-1.105.981a1.484,1.484,0,0,1-2.415-.92,1.1,1.1,0,0,1,.238-.813,22.187,22.187,0,0,1,4.623-3.823.193.193,0,0,1,.065-.013l.1.1c-.28.3-.568.586-.837.893a1.89,1.89,0,0,0-.2.38c.148.044.321.16.441.119.483-.162.958-.35,1.467-.55l.411-.16C23.634,19.772,23.524,20.082,23.369,20.366Zm1.373-2.535a4.363,4.363,0,0,1-1.373,1.152q-.247.138-.507.258c.178-.681.356-1.312.507-1.95l.006-.026a4.468,4.468,0,0,1,.826-1.721c.243-.319.516-.192.795-.123.258.063.323.252.334.5A2.845,2.845,0,0,1,24.742,17.831Zm2.34-8.5c-.578,1.75-1.163,3.5-1.727,5.252-.106.329-.25.389-.561.191l1.483-6.593.228-1.012,1.2.281c-.082.247-.161.49-.241.731Z"/></svg>
    </g>
    <g id="mui">
        <svg xmlns="http://www.w3.org/2000/svg" width="120" height="120" viewBox="0 0 36 32" fill="none">
            <path fill-rule="evenodd" clip-rule="evenodd" d="M30.343 21.976a1 1 0 00.502-.864l.018-5.787a1 1 0 01.502-.864l3.137-1.802a1 1 0 011.498.867v10.521a1 1 0 01-.502.867l-11.839 6.8a1 1 0 01-.994.001l-9.291-5.314a1 1 0 01-.504-.868v-5.305c0-.006.007-.01.013-.007.005.003.012 0 .012-.007v-.006c0-.004.002-.008.006-.01l7.652-4.396c.007-.004.004-.015-.004-.015a.008.008 0 01-.008-.008l.015-5.201a1 1 0 00-1.5-.87l-5.687 3.277a1 1 0 01-.998 0L6.666 9.7a1 1 0 00-1.499.866v9.4a1 1 0 01-1.496.869l-3.166-1.81a1 1 0 01-.504-.87l.028-16.43A1 1 0 011.527.86l10.845 6.229a1 1 0 00.996 0L24.21.86a1 1 0 011.498.868v16.434a1 1 0 01-.501.867l-5.678 3.27a1 1 0 00.004 1.735l3.132 1.783a1 1 0 00.993-.002l6.685-3.839zM31 7.234a1 1 0 001.514.857l3-1.8A1 1 0 0036 5.434V1.766A1 1 0 0034.486.91l-3 1.8a1 1 0 00-.486.857v3.668z" fill="#007FFF"></path>
        </svg>
    </g>
    <g id="sass">
        <g clip-path="url(#clip0_2_5689)">
            <path d="M100.673 50.0766C96.603 50.0975 93.0653 51.0694 90.1035 52.5063C89.0162 50.3721 87.9295 48.4708 87.738 47.076C87.5246 45.4493 87.2691 44.4561 87.5246 42.5122C87.7805 40.5683 88.9312 37.8001 88.9098 37.589C88.8887 37.3778 88.6538 36.3846 86.3098 36.3637C83.9658 36.3424 81.9413 36.8073 81.7068 37.42C81.4724 38.0326 81.025 39.4273 80.7266 40.8637C80.3216 42.9771 76.0386 50.5198 73.5881 54.471C72.7993 52.9291 72.1174 51.5765 71.968 50.499C71.755 48.8722 71.4991 47.879 71.755 45.9351C72.0109 43.9912 73.1617 41.2235 73.1402 41.0119C73.1187 40.8007 72.8843 39.8075 70.5403 39.7866C68.1958 39.7653 66.1713 40.2302 65.9373 40.8429C65.7029 41.4559 65.4469 42.8923 64.957 44.2871C64.4667 45.6818 58.7769 58.275 57.2852 61.5285C56.6824 62.8453 56.0501 64.1487 55.3886 65.4376C55.3886 65.4376 55.3672 65.501 55.3032 65.6066C55.0954 66.0107 54.8824 66.4122 54.6643 66.811V66.8318C54.3444 67.4028 54.0035 67.9307 53.833 67.9307C53.705 67.9307 53.4706 66.4095 53.8755 64.3387C54.7278 59.9652 56.7524 53.1615 56.7313 52.9291C56.7313 52.8022 57.1148 51.6191 55.4101 51.006C53.7475 50.3934 53.1511 51.4075 53.0017 51.4075C52.8527 51.4075 52.7458 51.7668 52.7458 51.7668C52.7458 51.7668 54.6003 44.118 49.2085 44.118C45.8417 44.118 41.1958 47.7734 38.8943 51.0694C36.278 52.4811 33.6639 53.8968 31.052 55.3166C29.7953 56.0139 28.4951 56.7113 27.2803 57.3661C27.1949 57.2818 27.1099 57.1758 27.0244 57.0915C20.5034 50.1822 8.442 45.3012 8.95339 36.0257C9.14534 32.6449 10.3171 23.7705 32.1178 12.9947C50.0608 4.22583 64.3392 6.65549 66.8111 12.0436C70.3484 19.7349 59.1608 34.0183 40.6204 36.0887C33.5455 36.8708 29.8373 34.1661 28.9 33.152C27.9197 32.0953 27.7703 32.0318 27.4079 32.2435C26.8115 32.5606 27.1949 33.5113 27.4079 34.0605C27.9622 35.4969 30.2422 38.0326 34.0994 39.2796C37.5091 40.378 45.7988 40.991 55.8361 37.1454C67.0666 32.8348 75.8466 20.8546 73.2682 10.8183C70.6893 0.633908 53.641 -2.72556 37.5091 2.95799C27.9197 6.33921 17.52 11.6634 10.0402 18.594C1.15363 26.834 -0.253039 33.997 0.322334 36.9976C2.38984 47.6465 17.2006 54.5771 23.1248 59.7114C22.8263 59.8804 22.5489 60.0286 22.3149 60.1555C19.3526 61.6132 8.05811 67.4658 5.24523 73.6568C2.04891 80.6716 5.75708 85.7009 8.20756 86.3765C15.8154 88.4686 23.6362 84.7076 27.8342 78.4953C32.0323 72.2834 31.5209 64.2119 29.5818 60.5144C29.5604 60.4722 29.5393 60.4296 29.4964 60.3875C30.2637 59.9439 31.052 59.479 31.8194 59.0354C33.2296 58.2088 34.6578 57.4126 36.1029 56.6474C35.3781 58.6126 34.8452 60.958 34.5897 64.3387C34.2698 68.3113 35.9105 73.4665 38.063 75.4947C39.0223 76.3828 40.1515 76.4037 40.8763 76.4037C43.3908 76.4037 44.5205 74.3329 45.7778 71.8819C47.3119 68.8818 48.6971 65.3954 48.6971 65.3954C48.6971 65.3954 46.971 74.8191 51.6595 74.8191C53.3641 74.8191 55.0902 72.6214 55.8575 71.5017V71.5226C55.8575 71.5226 55.9 71.4592 55.9855 71.3114C56.156 71.0368 56.2624 70.8674 56.2624 70.8674V70.8257C56.9443 69.6421 58.4789 66.9587 60.7589 62.5004C63.6998 56.7534 66.5342 49.5696 66.5342 49.5696C66.5342 49.5696 66.7901 51.3232 67.6634 54.239C68.1753 55.9505 69.2401 57.831 70.0929 59.648C69.411 60.5991 68.9846 61.127 68.9846 61.127L69.0061 61.1483C68.4518 61.8665 67.8554 62.6481 67.1945 63.4094C64.8716 66.1558 62.1016 69.3045 61.7178 70.2126C61.2699 71.2901 61.3768 72.0722 62.2296 72.7062C62.8475 73.1711 63.9553 73.234 65.085 73.1711C67.1735 73.0229 68.6437 72.5158 69.3681 72.1991C70.4978 71.7976 71.819 71.1846 73.0548 70.276C75.3352 68.6067 76.72 66.2192 76.5925 63.0714C76.5285 61.3386 75.9531 59.6059 75.2498 57.9787C75.4632 57.6833 75.6547 57.3874 75.8681 57.0915C79.4693 51.8724 82.2612 46.1462 82.2612 46.1462C82.2612 46.1462 82.5171 47.8998 83.3905 50.8161C83.8168 52.2951 84.6907 53.901 85.4575 55.4643C82.0693 58.1903 79.9807 61.3594 79.2349 63.4302C77.8926 67.2759 78.9365 69.0082 80.9185 69.4097C81.8133 69.6 83.092 69.1772 84.0298 68.7757C85.2231 68.3956 86.6297 67.7408 87.9724 66.7684C90.2529 65.0995 92.4474 62.775 92.3195 59.6272C92.2555 58.1903 91.8721 56.7743 91.3392 55.4009C94.2161 54.2182 97.9242 53.563 102.655 54.1122C112.799 55.2953 114.802 61.5706 114.418 64.2123C114.035 66.8531 111.904 68.29 111.201 68.7336C110.497 69.1777 110.263 69.3254 110.327 69.6421C110.412 70.107 110.753 70.0862 111.35 70.0014C112.181 69.8537 116.678 67.8672 116.869 63.0075C117.189 56.7956 111.222 50.0132 100.673 50.0766ZM22.4214 76.2346C19.0542 79.8687 14.3662 81.2421 12.3417 80.0803C10.1681 78.8333 11.0204 73.4665 15.1545 69.6213C17.669 67.2759 20.9083 65.0991 23.0608 63.7683C23.5507 63.4724 24.2755 63.0501 25.1493 62.5217C25.2983 62.437 25.3838 62.3948 25.3838 62.3948L25.8952 62.0776C27.4078 67.5713 25.9591 72.4103 22.4214 76.2346ZM46.9285 59.7114C45.7563 62.543 43.3058 69.7903 41.8141 69.3888C40.5354 69.0508 39.7466 63.5571 41.5582 58.1269C42.4745 55.4009 44.4136 52.147 45.5433 50.8796C47.3759 48.8509 49.4005 48.1744 49.8904 48.9991C50.5087 50.0766 47.6529 57.9365 46.9285 59.7114ZM67.152 69.3041C66.6617 69.5578 66.1932 69.7269 65.9798 69.6C65.8308 69.5153 66.1932 69.1772 66.1932 69.1772C66.1932 69.1772 68.7292 66.473 69.7305 65.2473C70.3063 64.5291 70.9877 63.684 71.7125 62.7329V63.0075C71.7125 66.2405 68.5583 68.4169 67.1516 69.3041H67.152ZM82.7511 65.7756C82.3887 65.5219 82.4527 64.6768 83.6674 62.0355C84.1363 61.0001 85.2441 59.2678 87.1411 57.5985C87.3541 58.2746 87.5035 58.9298 87.4821 59.5424C87.4606 63.6205 84.5202 65.1417 82.7511 65.7756Z" fill="#CD6799"/>
        </g>
        <defs>
            <clipPath id="clip0_2_5689">
                <rect width="117" height="87" fill="white"/>
            </clipPath>
        </defs>
    </g>

    <g id="unit">
        <svg version="1.0" xmlns="http://www.w3.org/2000/svg"
             width="120" height="120" viewBox="0 0 64.000000 64.000000"
             preserveAspectRatio="xMidYMid meet">

            <g transform="translate(0.000000,64.000000) scale(0.100000,-0.100000)"
               fill="#000000" stroke="none">
                <path d="M175 576 c-60 -28 -87 -56 -114 -116 -26 -57 -26 -123 0 -180 27 -60
54 -88 114 -116 71 -34 118 -31 219 11 14 6 17 5 11 -4 -11 -19 102 -131 132
-131 30 0 63 33 63 63 0 30 -112 143 -131 132 -9 -6 -10 -3 -4 11 42 101 45
148 11 219 -28 60 -56 87 -116 114 -60 27 -123 26 -185 -3z m163 -31 c49 -21
81 -52 103 -100 45 -96 -1 -207 -103 -250 -47 -19 -89 -19 -136 0 -157 66
-161 275 -7 346 49 23 94 24 143 4z m186 -394 c25 -25 37 -45 33 -55 -10 -26
-30 -19 -72 24 -32 33 -36 41 -25 55 18 21 21 20 64 -24z"/>
                <path d="M164 467 c-2 -7 -3 -56 -2 -108 l3 -94 105 0 105 0 0 105 0 105 -103
3 c-79 2 -104 0 -108 -11z m176 -97 l0 -70 -70 0 -70 0 0 70 0 70 70 0 70 0 0
-70z"/>
                <path d="M274 396 c-8 -14 -21 -23 -29 -20 -22 9 -28 -16 -9 -37 9 -10 21 -19
25 -19 14 0 61 78 54 89 -10 17 -23 13 -41 -13z"/>
                <path d="M65 130 l-29 -30 32 -32 c24 -25 34 -30 44 -20 9 9 7 16 -7 32 -17
19 -17 21 -1 39 17 18 15 41 -3 41 -4 0 -20 -14 -36 -30z"/>
                <path d="M145 149 c-4 -5 1 -19 11 -30 16 -18 16 -20 -1 -39 -14 -16 -16 -23
-7 -32 10 -10 20 -5 44 20 l32 32 -29 30 c-31 32 -40 36 -50 19z"/>
            </g>
        </svg>

    </g>

    <g id="git">
        <g clip-path="url(#clip0_2_5685)">
            <path d="M103.02 47.8219L57.1758 1.98038C54.5372 -0.6598 50.2552 -0.6598 47.6134 1.98038L38.0937 11.5001L50.1699 23.5763C52.9762 22.6281 56.1943 23.2642 58.4313 25.5012C60.6789 27.7525 61.3106 30.9981 60.3393 33.8134L71.9775 45.452C74.7932 44.482 78.0421 45.1095 80.291 47.3621C83.434 50.5039 83.434 55.596 80.291 58.7399C77.1471 61.8841 72.055 61.8841 68.9095 58.7399C66.5454 56.3733 65.9613 52.9013 67.1582 49.9888L56.3046 39.1352L56.3034 67.6973C57.0902 68.0863 57.8088 68.6002 58.4313 69.2189C61.5743 72.3607 61.5743 77.4532 58.4313 80.5995C55.2874 83.7422 50.1929 83.7422 47.0535 80.5995C43.9105 77.4532 43.9105 72.3611 47.0535 69.2193C47.8067 68.4658 48.7019 67.869 49.6871 67.4635V38.6352C48.7004 38.2324 47.8048 37.6353 47.0535 36.8793C44.6722 34.5013 44.0996 31.0071 45.3198 28.0831L33.4154 16.1775L1.98105 47.6099C-0.660352 50.2525 -0.660352 54.5349 1.98105 57.1755L47.8259 103.018C50.4652 105.658 54.7464 105.658 57.3891 103.018L103.019 57.3884C105.66 54.747 105.66 50.4621 103.019 47.8219" fill="#DE4C36"/>
        </g>
        <defs>
            <clipPath id="clip0_2_5685">
                <rect width="105" height="105" fill="white"/>
            </clipPath>
        </defs>
    </g>
    <g id="github">
        <path fill-rule="evenodd" clip-rule="evenodd" d="M44 0C19.69 0 0 19.69 0 44C0 63.47 12.595 79.915 30.085 85.745C32.285 86.13 33.11 84.81 33.11 83.655C33.11 82.61 33.055 79.145 33.055 75.46C22 77.495 19.14 72.765 18.26 70.29C17.765 69.025 15.62 65.12 13.75 64.075C12.21 63.25 10.01 61.215 13.695 61.16C17.16 61.105 19.635 64.35 20.46 65.67C24.42 72.325 30.745 70.455 33.275 69.3C33.66 66.44 34.815 64.515 36.08 63.415C26.29 62.315 16.06 58.52 16.06 41.69C16.06 36.905 17.765 32.945 20.57 29.865C20.13 28.765 18.59 24.255 21.01 18.205C21.01 18.205 24.695 17.05 33.11 22.715C36.63 21.725 40.37 21.23 44.11 21.23C47.85 21.23 51.59 21.725 55.11 22.715C63.525 16.995 67.21 18.205 67.21 18.205C69.63 24.255 68.09 28.765 67.65 29.865C70.455 32.945 72.16 36.85 72.16 41.69C72.16 58.575 61.875 62.315 52.085 63.415C53.68 64.79 55.055 67.43 55.055 71.555C55.055 77.44 55 82.17 55 83.655C55 84.81 55.825 86.185 58.025 85.745C66.7597 82.796 74.3497 77.1822 79.7268 69.6937C85.1039 62.2052 87.9974 53.219 88 44C88 19.69 68.31 0 44 0Z" fill="black"/>
    </g>

    <!-- social -->

    <g id="socgithub">
        <path fill-rule="evenodd" clip-rule="evenodd" d="M15 0C6.7125 0 0 6.7125 0 15C0 21.6375 4.29375 27.2437 10.2563 29.2313C11.0063 29.3625 11.2875 28.9125 11.2875 28.5188C11.2875 28.1625 11.2688 26.9813 11.2688 25.725C7.5 26.4188 6.525 24.8062 6.225 23.9625C6.05625 23.5312 5.325 22.2 4.6875 21.8438C4.1625 21.5625 3.4125 20.8687 4.66875 20.85C5.85 20.8313 6.69375 21.9375 6.975 22.3875C8.325 24.6562 10.4812 24.0187 11.3438 23.625C11.475 22.65 11.8688 21.9937 12.3 21.6187C8.9625 21.2437 5.475 19.95 5.475 14.2125C5.475 12.5813 6.05625 11.2313 7.0125 10.1813C6.8625 9.80625 6.3375 8.26875 7.1625 6.20625C7.1625 6.20625 8.41875 5.8125 11.2875 7.74375C12.4875 7.40625 13.7625 7.2375 15.0375 7.2375C16.3125 7.2375 17.5875 7.40625 18.7875 7.74375C21.6562 5.79375 22.9125 6.20625 22.9125 6.20625C23.7375 8.26875 23.2125 9.80625 23.0625 10.1813C24.0188 11.2313 24.6 12.5625 24.6 14.2125C24.6 19.9688 21.0938 21.2437 17.7563 21.6187C18.3 22.0875 18.7688 22.9875 18.7688 24.3937C18.7688 26.4 18.75 28.0125 18.75 28.5188C18.75 28.9125 19.0312 29.3813 19.7812 29.2313C22.759 28.2259 25.3465 26.3121 27.1796 23.7592C29.0127 21.2063 29.9991 18.1429 30 15C30 6.7125 23.2875 0 15 0Z" fill="currentColor"/>
    </g>
    <g id="codewars">
        <svg width="31" height="31" viewBox="0 0 33 36" fill="none" xmlns="http://www.w3.org/2000/svg">
            <path fill-rule="evenodd" clip-rule="evenodd" d="M26.0659 23.848C25.841 24.0479 25.5661 24.1479 25.2662 24.1229C25.3912 24.4977 25.2912 24.9226 25.0163 25.1975C24.7414 25.4724 24.3166 25.5724 23.9417 25.4224C23.9167 25.7223 23.7168 25.9972 23.4419 26.1222C23.142 26.2471 22.7921 26.1971 22.5422 25.9972C22.4172 26.2721 22.1173 26.4471 21.8174 26.4221C21.8174 26.597 21.7674 26.747 21.6675 26.8969C21.3426 27.6217 20.5179 27.9715 19.7681 27.6716C19.7931 28.3464 19.2683 28.9212 18.5686 28.9462C18.2437 28.9462 17.9188 28.8462 17.6689 28.5963C17.4939 28.9962 17.144 29.2461 16.7192 29.2711C16.2943 29.2961 15.8945 29.0712 15.6946 28.6963C15.4446 29.0212 15.0448 29.1711 14.6449 29.0712C14.2451 28.9712 13.9452 28.6463 13.8702 28.2714C13.5703 28.3964 13.2454 28.3714 12.9955 28.1715C12.7456 27.9715 12.6206 27.6716 12.6706 27.3467L12.3457 27.3218C11.9958 27.2218 11.7959 26.8469 11.8709 26.497C11.646 26.722 11.3711 26.8219 11.0462 26.8469C10.2215 26.9219 9.52169 26.3471 9.44672 25.5724C9.02187 25.8223 8.49705 25.7723 8.09719 25.4724C7.69733 25.1725 7.52239 24.6727 7.64735 24.1978C7.04755 24.2728 6.49774 23.823 6.44776 23.2232C6.42277 22.9733 6.49774 22.6984 6.6227 22.4984C6.07289 22.4235 5.67303 21.8986 5.748 21.3488C5.773 21.0989 5.92294 20.849 6.12287 20.6991C5.87296 20.4991 5.748 20.1992 5.79799 19.8743C5.84797 19.5495 6.07289 19.2995 6.37279 19.1996C6.14787 18.9247 6.17286 18.4998 6.42277 18.2499H6.44776C6.27282 18.1499 6.12287 18.025 5.99792 17.85C5.52308 17.2003 5.64804 16.3006 6.27282 15.8008C5.84797 15.5508 5.59806 15.076 5.67303 14.6012C5.72301 14.1014 6.07289 13.7015 6.54773 13.5515C6.29781 13.2017 6.27282 12.7518 6.47275 12.377C6.67268 12.0021 7.09754 11.7772 7.52239 11.8271C7.37244 11.4523 7.4724 11.0274 7.74731 10.7525C8.02221 10.4776 8.44707 10.3776 8.82194 10.5276C8.84693 10.2277 9.04686 9.95279 9.34676 9.82784C9.64665 9.70288 9.97154 9.75286 10.2215 9.95279C10.3464 9.6529 10.6463 9.47796 10.9462 9.50295L10.9712 9.57792C10.9712 9.10309 11.2211 8.65324 11.621 8.37834C12.0208 8.10344 12.5207 8.05345 12.9705 8.22839L13.0455 7.80354C13.1704 7.40368 13.5203 7.10378 13.9202 7.00382C14.32 6.90385 14.7449 7.02881 15.0698 7.30371C15.2197 6.90385 15.5946 6.62895 16.0444 6.60396C16.4693 6.57897 16.8691 6.80389 17.0691 7.20375C17.319 6.87886 17.7188 6.72891 18.1187 6.82888C18.5186 6.92884 18.8185 7.25373 18.8934 7.6286C19.1933 7.50364 19.5182 7.55363 19.7681 7.75356C20.018 7.95349 20.143 8.27838 20.068 8.57827C20.4429 8.5033 20.8178 8.75321 20.8927 9.12808C20.9177 9.22804 20.9177 9.30302 20.8927 9.40298C21.1177 9.17806 21.3926 9.0781 21.7175 9.02811C22.5422 8.97813 23.2169 9.55293 23.2919 10.3277C23.7168 10.0778 24.2666 10.1027 24.6664 10.4026C25.0663 10.7025 25.2412 11.2274 25.1163 11.7022C25.7161 11.6272 26.2659 12.0771 26.3159 12.6768C26.3409 12.9268 26.2659 13.2017 26.1409 13.4016C26.5408 13.4766 26.8657 13.7515 26.9656 14.1513C27.0656 14.5512 26.9406 14.9511 26.6158 15.201C26.7907 15.3259 26.9157 15.5259 26.9656 15.7258C27.0156 16.1506 26.7907 16.5505 26.3908 16.7254C26.6158 17.0003 26.5908 17.4252 26.3409 17.6751C26.7657 17.925 27.0406 18.3749 27.0656 18.8497C27.0906 19.3495 26.8657 19.7994 26.4908 20.0993C26.6158 20.1742 26.7157 20.2492 26.8157 20.3742C27.0906 20.6991 27.1656 21.1239 27.0656 21.5238C26.9406 21.9236 26.6407 22.2235 26.2409 22.3485C26.5658 22.8483 26.4908 23.4981 26.0659 23.848ZM29.7897 6.80389L19.3933 0.80597C17.5439 -0.268657 15.2447 -0.268657 13.3953 0.80597L2.99896 6.80389C1.1496 7.87851 0 9.85283 0 12.0021V23.9979C0 26.1472 1.1496 28.1215 2.99896 29.1961L13.3953 35.194C15.2447 36.2687 17.5439 36.2687 19.3933 35.194L29.7897 29.1961C31.639 28.1215 32.7886 26.1472 32.7886 23.9979V11.9771C32.7886 9.85283 31.639 7.87851 29.7897 6.80389ZM8.39709 16.1509C8.69699 16.5507 8.77196 17.0755 8.59702 17.5504C9.19681 17.6004 9.67165 18.0752 9.72163 18.675C10.2714 18.55 10.8212 18.8499 11.0212 19.3498C11.471 19.0249 12.1208 19.0998 12.4457 19.5747L12.4957 19.6247L12.6206 19.4997C12.8955 19.2498 13.3204 19.2248 13.6453 19.4497C13.6953 19.2998 13.7702 19.1748 13.8702 19.0749C14.1451 18.8499 14.495 18.8249 14.7699 19.0249C14.8199 18.8499 14.9698 18.725 15.1447 18.7C15.0198 18.5001 14.9698 18.2751 14.9448 18.0502V18.0752C14.6949 18.1502 14.445 18.0252 14.37 17.8003C14.37 17.7753 14.37 17.7753 14.345 17.7503C14.1201 17.8753 13.8452 17.9003 13.6203 17.7753C13.3954 17.6503 13.2454 17.4254 13.2204 17.1755C13.0705 17.2255 12.8455 17.2505 12.6706 17.1755C12.2458 17.0256 12.0208 16.5757 12.1458 16.1509C11.7709 16.1759 11.421 15.9759 11.2211 15.651C11.0212 15.3262 11.0462 14.9263 11.2461 14.6014C10.8462 14.5014 10.5214 14.1516 10.4464 13.7517C10.3464 13.3268 10.4964 12.902 10.8212 12.6521C10.3464 12.2272 10.2964 11.5025 10.6713 11.0027C10.642 11.0027 10.6213 10.9941 10.6042 10.987C10.592 10.982 10.5817 10.9777 10.5713 10.9777C10.5214 11.2026 10.3464 11.4025 10.1465 11.5025C9.94655 11.6274 9.69664 11.6274 9.47172 11.5775C9.44673 12.1023 8.99688 12.5271 8.47206 12.5521C8.62201 12.827 8.64701 13.1769 8.52205 13.4768C8.39709 13.7767 8.14718 14.0016 7.84728 14.1016C8.24714 14.6014 8.22215 15.3012 7.77231 15.751C7.99723 15.751 8.22215 15.901 8.39709 16.1509ZM15.7695 22.1738C15.1947 22.2237 14.7948 22.7486 14.8698 23.2984C14.32 23.1984 13.7702 23.5483 13.5952 24.0481C13.0454 23.7982 12.4207 23.9731 12.0708 24.473L12.0458 24.448C11.546 23.8232 10.6213 23.7482 9.99649 24.248C9.84655 23.6482 9.22176 23.2484 8.59698 23.3483C8.64696 23.0485 8.57199 22.7236 8.37206 22.4736C8.17213 22.2237 7.89722 22.0738 7.57234 22.0488C7.84724 21.599 7.69729 20.9992 7.24745 20.6993C7.44738 20.4993 7.57234 20.1994 7.49736 19.8995C7.47237 19.7246 7.3724 19.5497 7.24745 19.4247C7.29743 19.4247 7.34741 19.3997 7.3974 19.3747C7.6723 19.8995 8.29708 20.1495 8.87188 19.9745C8.92187 20.3994 9.22176 20.7243 9.59663 20.8742C9.9715 21.0242 10.3964 20.9492 10.7212 20.6743C10.8712 20.9492 11.1211 21.1741 11.446 21.2241C11.7709 21.2741 12.0958 21.1741 12.3207 20.9742C12.3957 20.9242 12.5206 20.7992 12.5456 20.6993C12.7455 20.9492 13.0704 21.0242 13.3703 20.9492C13.6702 20.8742 13.8951 20.6243 13.9701 20.3244C14.22 20.4494 14.4949 20.4743 14.7448 20.3244C14.9948 20.1744 15.1197 19.9245 15.1197 19.6496C15.2447 19.6996 15.4196 19.6496 15.5196 19.5497C15.6195 19.4747 15.6695 19.3497 15.6945 19.2498C15.9194 19.3747 16.1693 19.4497 16.4193 19.4497C16.3693 19.5247 16.3693 19.6246 16.3693 19.6996C16.3943 19.7996 16.4193 19.8995 16.4942 19.9495C16.1943 20.0995 16.0444 20.4244 16.0944 20.7493C16.0944 20.8742 16.1943 21.0242 16.2943 21.1241C15.9444 21.2491 15.7445 21.6489 15.8195 22.0238L15.8445 22.1738H15.7695ZM17.9187 12.702C17.9437 12.9769 17.8688 13.2768 17.6688 13.4768C17.4689 13.7017 17.219 13.8266 16.9191 13.8266L16.9441 13.9766C17.0191 14.3515 16.8441 14.7513 16.4942 14.8763H16.4693C16.7691 15.1762 16.7691 15.651 16.4693 15.9259C16.4193 15.9759 16.3693 16.0259 16.2943 16.0509C16.3693 16.1508 16.4193 16.2508 16.3943 16.3758C16.6442 16.3758 16.9191 16.4507 17.144 16.6007C17.244 16.4007 17.4439 16.3008 17.6688 16.3508C17.6688 16.0759 17.7938 15.8259 18.0437 15.676C18.2936 15.526 18.5685 15.551 18.8184 15.676C18.8184 15.5011 18.9184 15.3511 19.0683 15.2262C19.4432 14.9263 19.943 14.9512 20.218 15.3011C20.4929 14.8013 21.0926 14.6264 21.5925 14.8763C21.7674 14.9762 21.9174 15.1262 22.0173 15.3011C22.3422 15.0262 22.7671 14.9512 23.1419 15.1012C23.5168 15.2511 23.8167 15.576 23.8667 16.0009C24.4415 15.801 25.0663 16.0509 25.3412 16.6007L25.4661 16.5257C25.1163 16.2008 25.0913 15.651 25.4161 15.3011C25.4257 15.2916 25.4316 15.282 25.4366 15.2739C25.4448 15.2607 25.4507 15.2511 25.4661 15.2511C25.0163 14.9512 24.8663 14.3515 25.1412 13.9016C24.8164 13.9016 24.5165 13.7517 24.3165 13.4768C24.1166 13.2268 24.0416 12.902 24.0916 12.5771C23.4668 12.677 22.842 12.2772 22.6921 11.6774C22.0673 12.1772 21.1426 12.0772 20.6428 11.4525C20.2929 11.9523 19.6432 12.1272 19.0933 11.8523C18.9934 12.4271 18.4686 12.777 17.9187 12.702ZM12.4707 14.1515C12.8206 13.7017 12.7706 13.0519 12.3707 12.6521C12.8706 12.2772 13.0205 11.6274 12.7706 11.1026C13.5703 10.9527 14.0951 10.2029 13.9702 9.4032C14.595 9.57814 15.2197 9.20327 15.4197 8.60348C15.6696 8.80341 15.9945 8.87838 16.2944 8.8284C16.5943 8.77841 16.8692 8.60348 17.0441 8.32857C17.344 8.77841 17.9188 8.92836 18.3936 8.65346C18.4686 8.95335 18.6436 9.22826 18.9684 9.32822C19.1434 9.37821 19.3433 9.35321 19.5182 9.27824L19.5432 9.55314C19.0434 9.62812 18.6186 10.003 18.5186 10.5028C18.1187 10.3529 17.6939 10.4028 17.369 10.6778C17.0441 10.9527 16.8942 11.3775 16.9691 11.7774C16.5943 11.7774 16.2444 11.9523 16.0445 12.2772C15.8695 12.6021 15.8445 13.0019 16.0445 13.3268C15.7446 13.4018 15.4946 13.6267 15.4197 13.9266C15.3447 14.2265 15.4447 14.5514 15.6696 14.7513C15.4447 14.8763 15.2947 15.1262 15.2947 15.3761C15.2947 15.651 15.4197 15.876 15.6446 16.0259C15.5696 16.1509 15.4946 16.3008 15.5196 16.4508L15.5946 16.6507C15.3947 16.8006 15.2197 17.0006 15.0948 17.2255C14.9698 17.1505 14.8199 17.1005 14.6699 17.1505C14.6949 16.9006 14.595 16.6507 14.395 16.5007C14.1951 16.3508 13.9202 16.3008 13.6953 16.3758C13.7453 16.0259 13.4953 15.676 13.1205 15.5761L12.9705 15.5261C13.0955 15.2762 13.1205 15.0013 13.0205 14.7263C12.9205 14.4764 12.7206 14.2515 12.4707 14.1515ZM24.2666 22.5986C24.3915 22.2987 24.6414 22.0738 24.9413 21.9738C24.5415 21.474 24.5665 20.7742 25.0163 20.3244C24.7414 20.2494 24.5165 20.0745 24.3665 19.8496H24.3416C24.0417 19.4497 23.9667 18.9249 24.1416 18.4501C23.5418 18.4001 23.067 17.9252 23.017 17.3254C22.4922 17.4504 21.9424 17.1505 21.7425 16.6507C21.5175 16.8256 21.2176 16.9006 20.9427 16.8506C20.6678 16.8006 20.4179 16.6257 20.268 16.3758L20.143 16.5007C19.8681 16.7506 19.4433 16.7756 19.1434 16.5757C19.0934 16.7257 18.9934 16.8506 18.8934 16.9506C18.6435 17.1755 18.2687 17.2005 17.9938 17.0006C17.9688 17.1255 17.8688 17.2255 17.7438 17.3005C17.8438 17.5004 17.9188 17.7503 17.9188 18.0002H18.1187C18.2936 18.0502 18.3936 18.1751 18.4186 18.3251C18.6435 18.1751 18.9184 18.1751 19.1683 18.3001C19.3933 18.4251 19.5682 18.65 19.5682 18.9249C19.7431 18.8499 19.9431 18.8499 20.118 18.9249C20.5429 19.0748 20.7678 19.5247 20.6428 19.9495C21.0427 19.8996 21.4426 20.0995 21.6425 20.4494C21.8424 20.7992 21.8174 21.2241 21.5925 21.549C21.9674 21.6739 22.2423 21.9988 22.3173 22.3987C22.3922 22.7985 22.2673 23.1984 21.9674 23.4733C22.4422 23.8982 22.4922 24.6229 22.1173 25.1227L22.2423 25.1727C22.2923 24.9478 22.4422 24.7479 22.6671 24.6479C22.8671 24.5229 23.117 24.498 23.3419 24.5729C23.3669 24.0231 23.8167 23.5983 24.3416 23.5983C24.1666 23.2484 24.1666 22.8985 24.2666 22.5986ZM20.318 21.8489C19.9681 22.2987 20.0181 22.9485 20.4179 23.3484C19.9431 23.6982 19.7681 24.348 19.9931 24.8728C19.1933 25.0228 18.6685 25.7725 18.7935 26.5722C18.1937 26.4223 17.5189 26.7472 17.344 27.372C17.0941 27.172 16.7942 27.0721 16.4693 27.1221C16.1694 27.172 15.8945 27.347 15.7196 27.6219C15.4197 27.172 14.8449 27.0221 14.37 27.297C14.32 27.0471 14.1701 26.8471 13.9702 26.7222C13.7702 26.5972 13.4953 26.5722 13.2704 26.6472V26.6722L13.2454 26.3973C13.7452 26.3223 14.1701 25.9475 14.2701 25.4476C14.47 25.5226 14.6699 25.5226 14.8698 25.4976C15.4946 25.3977 15.8945 24.8229 15.7945 24.1981C16.0944 24.1981 16.4193 24.0731 16.6192 23.8482C16.8442 23.5983 16.9191 23.2734 16.8691 22.9735C16.8691 22.8548 16.8379 22.7831 16.8 22.6965C16.79 22.6736 16.7796 22.6497 16.7692 22.6236C17.0691 22.5486 17.294 22.3237 17.369 22.0238C17.4439 21.7239 17.344 21.399 17.1191 21.1991C17.219 21.1491 17.294 21.0492 17.369 20.9492C17.5939 20.5993 17.4689 20.1495 17.1191 19.9246L17.169 19.8746C17.319 19.6746 17.319 19.3997 17.1191 19.2248C17.344 19.0998 17.5439 18.9249 17.6689 18.7C17.7688 18.7999 17.9188 18.8499 18.0687 18.8249C18.0687 19.0749 18.1687 19.2998 18.3686 19.4497C18.5686 19.5997 18.8435 19.6497 19.0684 19.5747V19.5997C19.0434 19.9495 19.2683 20.2994 19.6432 20.3994L19.7931 20.4494C19.6682 20.7243 19.6432 21.0242 19.7432 21.2741C19.8431 21.524 20.043 21.7489 20.318 21.8489Z" fill="currentColor"/>
        </svg>
    </g>
    <g id="linkedin">
        <g clip-path="url(#clip0_2_5677)">
            <path d="M15.0001 0.600098C7.0471 0.600098 0.600098 7.0471 0.600098 15.0001C0.600098 22.9531 7.0471 29.4001 15.0001 29.4001C22.9531 29.4001 29.4001 22.9531 29.4001 15.0001C29.4001 7.0471 22.9531 0.600098 15.0001 0.600098ZM11.4751 20.9686H8.5591V11.5846H11.4751V20.9686ZM9.9991 10.4326C9.0781 10.4326 8.4826 9.7801 8.4826 8.9731C8.4826 8.1496 9.0961 7.5166 10.0366 7.5166C10.9771 7.5166 11.5531 8.1496 11.5711 8.9731C11.5711 9.7801 10.9771 10.4326 9.9991 10.4326ZM22.1251 20.9686H19.2091V15.7681C19.2091 14.5576 18.7861 13.7356 17.7316 13.7356C16.9261 13.7356 16.4476 14.2921 16.2361 14.8276C16.1581 15.0181 16.1386 15.2881 16.1386 15.5566V20.9671H13.2211V14.5771C13.2211 13.4056 13.1836 12.4261 13.1446 11.5831H15.6781L15.8116 12.8866H15.8701C16.2541 12.2746 17.1946 11.3716 18.7681 11.3716C20.6866 11.3716 22.1251 12.6571 22.1251 15.4201V20.9686Z" fill="currentColor"/>
        </g>
        <defs>
            <clipPath id="clip0_2_5677">
                <rect width="30" height="30" fill="white"/>
            </clipPath>
        </defs>
    </g>

    <!-- projects icon -->
    <g id="link">
        <path d="M11.2867 8.71333C10.6041 8.03103 9.67846 7.64774 8.71334 7.64774C7.74821 7.64774 6.82259 8.03103 6.14 8.71333L3.56584 11.2867C2.88324 11.9693 2.49976 12.8951 2.49976 13.8604C2.49976 14.8258 2.88324 15.7516 3.56584 16.4342C4.24844 17.1168 5.17424 17.5002 6.13959 17.5002C7.10493 17.5002 8.03074 17.1168 8.71334 16.4342L10 15.1475" stroke="currentColor" stroke-width="1.66667" stroke-linecap="round" stroke-linejoin="round"/>
        <path d="M8.71338 11.2867C9.39597 11.969 10.3216 12.3523 11.2867 12.3523C12.2518 12.3523 13.1775 11.969 13.86 11.2867L16.4342 8.71334C17.1168 8.03074 17.5003 7.10493 17.5003 6.13959C17.5003 5.17424 17.1168 4.24844 16.4342 3.56584C15.7516 2.88324 14.8258 2.49976 13.8605 2.49976C12.8951 2.49976 11.9693 2.88324 11.2867 3.56584L10 4.8525" stroke="currentColor" stroke-width="1.66667" stroke-linecap="round" stroke-linejoin="round"/>
    </g>
    <g id="projgithub">
        <g clip-path="url(#clip0_4537_876)">
            <path fill-rule="evenodd" clip-rule="evenodd" d="M10 0C4.475 0 0 4.475 0 10C0 14.425 2.8625 18.1625 6.8375 19.4875C7.3375 19.575 7.525 19.275 7.525 19.0125C7.525 18.775 7.5125 17.9875 7.5125 17.15C5 17.6125 4.35 16.5375 4.15 15.975C4.0375 15.6875 3.55 14.8 3.125 14.5625C2.775 14.375 2.275 13.9125 3.1125 13.9C3.9 13.8875 4.4625 14.625 4.65 14.925C5.55 16.4375 6.9875 16.0125 7.5625 15.75C7.65 15.1 7.9125 14.6625 8.2 14.4125C5.975 14.1625 3.65 13.3 3.65 9.475C3.65 8.3875 4.0375 7.4875 4.675 6.7875C4.575 6.5375 4.225 5.5125 4.775 4.1375C4.775 4.1375 5.6125 3.875 7.525 5.1625C8.325 4.9375 9.175 4.825 10.025 4.825C10.875 4.825 11.725 4.9375 12.525 5.1625C14.4375 3.8625 15.275 4.1375 15.275 4.1375C15.825 5.5125 15.475 6.5375 15.375 6.7875C16.0125 7.4875 16.4 8.375 16.4 9.475C16.4 13.3125 14.0625 14.1625 11.8375 14.4125C12.2 14.725 12.5125 15.325 12.5125 16.2625C12.5125 17.6 12.5 18.675 12.5 19.0125C12.5 19.275 12.6875 19.5875 13.1875 19.4875C15.1726 18.8173 16.8976 17.5414 18.1197 15.8395C19.3418 14.1375 19.9994 12.0952 20 10C20 4.475 15.525 0 10 0Z" fill="currentColor"/>
        </g>
        <defs>
            <clipPath id="clip0_4537_876">
                <rect width="20" height="20" fill="white"/>
            </clipPath>
        </defs>
    </g>

</svg>
